<svg xmlns="http://www.w3.org/2000/svg" width="62.004" height="58.14" viewBox="0 0 62.004 58.14"><defs><style>.a{fill:#e45944;stroke:#e45944;stroke-miterlimit:10;stroke-width:2px;}</style></defs><path class="a" d="M538.29,404.35c-.865-9.641-7.7-16.635-16.24-16.635a16.157,16.157,0,0,0-13.829,7.968,15.553,15.553,0,0,0-13.5-7.968c-8.543,0-15.367,6.994-16.241,16.635a17.062,17.062,0,0,0,.508,6.323,27.075,27.075,0,0,0,8.312,13.862L508.21,443.51l21.261-18.969a27.138,27.138,0,0,0,8.312-13.868,17.185,17.185,0,0,0,.506-6.323Z" transform="translate(-477.383 -386.715)"/></svg>